PathFileType	4	(X/Y/Z)	/home/abdul/Desktop/myosuite/custom_workspace/IK/output/S11_12_1.trc
DataRate	CameraRate	NumFrames	NumMarkers	Units	OrigDataRate	OrigDataStartFrame	OrigNumFrames
200.0	200.0	22	3	mm	200.0	1353	1546
Frame#	Time	V_Shoulder			V_Elbow			V_Wrist		
		X1	Y1	Z1	X2	Y2	Z2	X3	Y3	Z3

1353	6.76	-110.96006197397894	552.5000975272551	280.3759629251116	-312.4350958573605	399.7291152735794	47.60068341241012	-208.01293492686386	168.75978000477238	77.10027882917046
1354	6.765	-111.12439103429905	552.6001397954534	280.1851365945957	-312.38776724546057	399.92428517757196	47.12733765161104	-207.96180143701406	169.0925540613888	76.06975416929062
1355	6.77	-111.28647856113118	552.7028284372097	279.99704808489315	-312.3407118582942	400.1132154939056	46.668421405250754	-207.90832196742593	169.4224167253498	75.05953750894929
1356	6.775	-111.44624378643402	552.8082852447735	279.81181418597384	-312.2941379210805	400.29618556523303	46.22397441413734	-207.85308260098873	169.749348054267	74.07024559710305
1357	6.78	-111.6036073142463	552.9166312171235	279.62954682308526	-312.2482376780946	400.47347564012705	45.79400440890893	-207.79664015442495	170.07333310711365	73.10244453712406
1358	6.785	-111.75849113622557	553.0279863701994	279.4503529535186	-312.203187272235	400.6453660127563	45.37848830670562	-207.739521255164	170.39436168021177	72.15664948869218
1359	6.79	-111.91081864871624	553.1424695449377	279.2743344728395	-312.15914668070616	400.8121361868477	44.97737346696523	-207.68222155530555	170.71242803460981	71.23332451968818
1360	6.795	-112.06051467160631	553.2601982135217	279.1015881306065	-312.1162597060756	400.97406406686594	44.59057899911242	-207.62520508357363	171.0275306165284	70.33288260595705
1361	6.8	-112.20750546921323	553.3812882842719	278.9322054555814	-312.0746540217785	401.131425179128	44.217997114963275	-207.56890373546753	171.33967177255795	69.45568577620274
1362	6.805	-112.35171877341934	553.505853905608	278.76627269041154	-312.0344412709437	401.28449192534674	43.85949451875376	-207.5137169011281	171.64885746128658	68.60204539869571
1363	6.81	-112.49308380925574	553.6340072695235	278.6038707357411	-311.9957172172376	401.43353287087183	43.51491382781828	-207.46001122976355	171.95509696301886	67.77222260592792
1364	6.815	-112.63153132311128	553.7658584150221	278.4450751036903	-311.9585619462431	401.57881206965544	43.18407501709213	-207.40812052882075	172.25840258921642	66.96642885283798
1365	6.82	-112.7669936137177	553.9015150319636	278.28995588061775	-311.9230401157247	401.72058842773134	42.866776880785935	-207.3583457954511	172.55878939325038	66.18482660375463
1366	6.825	-112.89940456603888	554.0410822657801	278.13857769906457	-311.8892012529734	401.8591151067491	42.56279850477999	-207.31095537720827	172.85627488400223	65.42753014277369
1367	6.83	-113.0286996881646	554.1846625235135	277.99099971875825	-311.85708009727347	401.9946389688592	42.27190074350845	-207.2661852583346	173.15087874378764	64.69460650189123
1368	6.835	-113.15481615128358	554.332355281632	277.8472756165384	-311.8266969853977	402.1274000639987	41.99382769534587	-207.22423946744033	173.4426225520025	63.98607650086696
1369	6.84	-113.27769283278288	554.4842568960817	277.7074535850489	-311.7980582779055	402.257631160381	41.72830817076993	-207.18529060186847	173.73152951580926	63.30191589248779
1370	6.845	-113.39727036249313	554.64046041502	277.57157634002584	-311.7711568239036	402.3855573187527	41.475057147850706	-207.149480463561	174.01762420908895	62.642056606640395
1371	6.85	-113.51349117207165	554.8010553946779	277.4396811359983	-311.74597246182304	402.5113955107415	41.23377720990788	-207.1169208008081	174.30093232078428	62.0063880863865
1372	6.855	-113.62629954748684	554.9661277187894	277.3117997902012	-311.72247255366915	402.6353542813882	41.00415996047977	-207.08769414987017	174.5814804136532	61.3947587090617
1373	6.86	-113.73564168454025	555.135759422018	277.18795871449225	-311.70061255012183	402.7576334557298	40.78588741106006	-207.06185477011456	174.85929569433966	60.80697728528979
1374	6.865	-113.84146574733431	555.310028517801	277.068178955051	-311.6803365837907	402.8784238890877	40.578633337377845	-207.03942966600738	175.1344057955523	60.2428146287164
